<svg xmlns="http://www.w3.org/2000/svg" xmlns:xlink="http://www.w3.org/1999/xlink" id="Layer_1" x="0" y="0" version="1.1" viewBox="0 0 1721 405" xml:space="preserve" style="enable-background:new 0 0 1721 405"><style type="text/css">.st0{fill:url(#SVGID_1_)}.st1{fill:url(#SVGID_2_)}.st1,.st2,.st3{opacity:.2}.st2{fill:url(#SVGID_3_)}.st3{fill:url(#SVGID_4_)}.st4{opacity:.3;fill:url(#SVGID_5_)}.st5{fill:url(#SVGID_6_)}.st5,.st6,.st7{opacity:.2}.st6{fill:url(#SVGID_7_)}.st7{fill:url(#SVGID_8_)}.st8{opacity:.1;fill:url(#SVGID_9_)}.st10,.st9{opacity:.2}.st9{fill:url(#SVGID_10_)}.st10{fill:url(#SVGID_11_)}</style><linearGradient id="SVGID_1_" x1="563.341" x2="564.324" y1="622.408" y2="623.351" gradientTransform="matrix(-1727.99 0 0 -421.5 975146.375 262739.625)" gradientUnits="userSpaceOnUse"><stop offset="0" style="stop-color:#00aeff"/><stop offset=".346" style="stop-color:#3369e6"/><stop offset="1" style="stop-color:#8136ce"/></linearGradient><path d="M1725-12H-3v421.5h1728V-12z" class="st0"/><linearGradient id="SVGID_2_" x1="1046.144" x2="1682.168" y1="-4308.42" y2="-4308.42" gradientTransform="matrix(1 0 0 7.987834e-03 0 401.7649)" gradientUnits="userSpaceOnUse"><stop offset="0" style="stop-color:#fff;stop-opacity:0"/><stop offset="1" style="stop-color:#fff"/></linearGradient><path d="M1534.9,409.5H-3v-84.3h1537.9c23.3,0,42.1,18.9,42.1,42.1v0C1577.1,390.6,1558.2,409.5,1534.9,409.5z" class="st1"/><linearGradient id="SVGID_3_" x1="740.877" x2="1191.838" y1="-14861.97" y2="-14861.97" gradientTransform="matrix(1 0 0 7.987834e-03 0 401.7649)" gradientUnits="userSpaceOnUse"><stop offset="0" style="stop-color:#fff;stop-opacity:0"/><stop offset="1" style="stop-color:#fff"/></linearGradient><path d="M1325.5,325.2H-3v-84.3h1328.5c23.3,0,42.1,18.9,42.1,42.1v0C1367.7,306.3,1348.8,325.2,1325.5,325.2z" class="st2"/><linearGradient id="SVGID_4_" x1="878.09" x2="1412.233" y1="-25415.519" y2="-25415.519" gradientTransform="matrix(1 0 0 7.987834e-03 0 401.7649)" gradientUnits="userSpaceOnUse"><stop offset="0" style="stop-color:#fff;stop-opacity:0"/><stop offset="1" style="stop-color:#fff"/></linearGradient><rect width="1728" height="84.3" x="-3" y="156.6" class="st3"/><linearGradient id="SVGID_5_" x1="719.771" x2="1157.936" y1="-35969.07" y2="-35969.07" gradientTransform="matrix(1 0 0 7.987834e-03 0 401.7649)" gradientUnits="userSpaceOnUse"><stop offset="0" style="stop-color:#fff;stop-opacity:0"/><stop offset="1" style="stop-color:#fff"/></linearGradient><path d="M1196.9,156.6H-3V72.3h1199.8c23.3,0,42.2,18.9,42.2,42.1v0C1239,137.7,1220.1,156.6,1196.9,156.6z" class="st4"/><linearGradient id="SVGID_6_" x1="921.962" x2="1482.703" y1="-46522.621" y2="-46522.621" gradientTransform="matrix(1 0 0 7.987834e-03 0 401.7649)" gradientUnits="userSpaceOnUse"><stop offset="0" style="stop-color:#fff;stop-opacity:0"/><stop offset="1" style="stop-color:#fff"/></linearGradient><path d="M1440.4,72.3H-3V-12h1443.4c23.3,0,42.1,18.9,42.1,42.1v0C1482.5,53.4,1463.7,72.3,1440.4,72.3z" class="st5"/><title>Slice</title><linearGradient id="SVGID_7_" x1="122.473" x2="800.063" y1="367.35" y2="367.35" gradientUnits="userSpaceOnUse"><stop offset="0" style="stop-color:#fff;stop-opacity:0"/><stop offset="1" style="stop-color:#fff"/></linearGradient><path d="M804.7,409.5H-3v-84.3h807.6c23.3,0,42.1,18.9,42.1,42.1v0C846.8,390.6,827.9,409.5,804.7,409.5z" class="st6"/><linearGradient id="SVGID_8_" x1="76.909" x2="508.422" y1="283.05" y2="283.05" gradientUnits="userSpaceOnUse"><stop offset="0" style="stop-color:#fff;stop-opacity:0"/><stop offset="1" style="stop-color:#fff"/></linearGradient><path d="M496,325.2H-3v-84.3h499c23.3,0,42.1,18.9,42.1,42.1v0C538.2,306.3,519.3,325.2,496,325.2z" class="st7"/><linearGradient id="SVGID_9_" x1="151.935" x2="988.637" y1="198.75" y2="198.75" gradientUnits="userSpaceOnUse"><stop offset="0" style="stop-color:#fff;stop-opacity:0"/><stop offset="1" style="stop-color:#fff"/></linearGradient><path d="M1004.2,240.9H-3v-84.3h1007.2c23.3,0,42.2,18.9,42.2,42.1v0C1046.4,222,1027.5,240.9,1004.2,240.9z" class="st8"/><linearGradient id="SVGID_10_" x1="114.83" x2="751.14" y1="114.45" y2="114.45" gradientUnits="userSpaceOnUse"><stop offset="0" style="stop-color:#fff;stop-opacity:0"/><stop offset="1" style="stop-color:#fff"/></linearGradient><path d="M752.9,156.6H-3V72.3h755.9c23.3,0,42.1,18.9,42.1,42.1v0C795,137.7,776.2,156.6,752.9,156.6z" class="st9"/><linearGradient id="SVGID_11_" x1="48.921" x2="329.278" y1="30.15" y2="30.15" gradientUnits="userSpaceOnUse"><stop offset="0" style="stop-color:#fff;stop-opacity:0"/><stop offset="1" style="stop-color:#fff"/></linearGradient><path d="M306.5,72.3H-3V-12h309.5c23.3,0,42.1,18.9,42.1,42.1v0C348.6,53.4,329.7,72.3,306.5,72.3z" class="st10"/></svg>